<svg width="310" height="64" viewBox="0 0 310 64" fill="none" xmlns="http://www.w3.org/2000/svg">
<path d="M9.83334 26.1255C9.83334 24.2399 9.83334 23.2971 10.4191 22.7113C11.0049 22.1255 11.9477 22.1255 13.8333 22.1255H45.1667C47.0523 22.1255 47.9951 22.1255 48.5809 22.7113C49.1667 23.2971 49.1667 24.2399 49.1667 26.1255V45.6255C49.1667 48.4539 49.1667 49.8681 48.288 50.7468C47.4093 51.6255 45.9951 51.6255 43.1667 51.6255H15.8333C13.0049 51.6255 11.5907 51.6255 10.712 50.7468C9.83334 49.8681 9.83334 48.4539 9.83334 45.6255V26.1255Z" stroke="white" stroke-width="2"/>
<path d="M40.5624 22.125L40.7531 20.5994C41.3896 15.5067 39.098 10.4908 34.8316 7.63814V7.63814C29.7516 4.24155 23.0279 4.6602 18.4085 8.6607L16.3968 10.4029" stroke="white" stroke-width="2" stroke-linecap="round"/>
<ellipse cx="29.5" cy="36.875" rx="4.91667" ry="4.91667" fill="white"/>
<path d="M82.7188 50.2656V52H64.625V50.2656H82.7188ZM65.4688 17.875V52H63.5469V17.875H65.4688ZM111.847 32.6641V37.2109C111.847 39.4922 111.542 41.5703 110.933 43.4453C110.339 45.3203 109.472 46.9297 108.331 48.2734C107.191 49.6172 105.823 50.6562 104.23 51.3906C102.636 52.1094 100.839 52.4688 98.8391 52.4688C96.8859 52.4688 95.1047 52.1094 93.4953 51.3906C91.8859 50.6562 90.5031 49.6172 89.3469 48.2734C88.2062 46.9297 87.3234 45.3203 86.6984 43.4453C86.0891 41.5703 85.7844 39.4922 85.7844 37.2109V32.6641C85.7844 30.3672 86.0891 28.2891 86.6984 26.4297C87.3234 24.5547 88.2062 22.9453 89.3469 21.6016C90.4875 20.2578 91.8547 19.2266 93.4484 18.5078C95.0578 17.7734 96.8391 17.4062 98.7922 17.4062C100.792 17.4062 102.589 17.7734 104.183 18.5078C105.777 19.2266 107.144 20.2578 108.284 21.6016C109.441 22.9453 110.323 24.5547 110.933 26.4297C111.542 28.2891 111.847 30.3672 111.847 32.6641ZM109.972 37.2109V32.6172C109.972 30.6172 109.722 28.7969 109.222 27.1562C108.722 25.5 107.987 24.0781 107.019 22.8906C106.066 21.7031 104.902 20.7891 103.527 20.1484C102.152 19.4922 100.573 19.1641 98.7922 19.1641C97.0578 19.1641 95.5031 19.4922 94.1281 20.1484C92.7531 20.7891 91.5891 21.7031 90.6359 22.8906C89.6828 24.0781 88.9562 25.5 88.4562 27.1562C87.9562 28.7969 87.7062 30.6172 87.7062 32.6172V37.2109C87.7062 39.2266 87.9562 41.0625 88.4562 42.7188C88.9719 44.375 89.7062 45.7969 90.6594 46.9844C91.6125 48.1719 92.7766 49.0938 94.1516 49.75C95.5422 50.3906 97.1047 50.7109 98.8391 50.7109C100.62 50.7109 102.198 50.3906 103.573 49.75C104.948 49.0938 106.112 48.1719 107.066 46.9844C108.019 45.7969 108.737 44.375 109.222 42.7188C109.722 41.0625 109.972 39.2266 109.972 37.2109ZM141.467 41.4766H143.366C143.131 43.8672 142.491 45.8828 141.444 47.5234C140.397 49.1484 138.991 50.3828 137.225 51.2266C135.475 52.0547 133.412 52.4688 131.037 52.4688C129.147 52.4688 127.428 52.1094 125.881 51.3906C124.35 50.6562 123.03 49.625 121.92 48.2969C120.827 46.9531 119.983 45.3516 119.389 43.4922C118.795 41.6328 118.498 39.5781 118.498 37.3281V32.5469C118.498 30.2812 118.795 28.2266 119.389 26.3828C119.983 24.5234 120.827 22.9297 121.92 21.6016C123.03 20.2578 124.358 19.2266 125.905 18.5078C127.467 17.7734 129.209 17.4062 131.131 17.4062C133.459 17.4062 135.498 17.8203 137.248 18.6484C138.998 19.4766 140.397 20.7109 141.444 22.3516C142.491 23.9766 143.131 25.9844 143.366 28.375H141.467C141.233 26.3906 140.694 24.7188 139.85 23.3594C139.022 21.9844 137.881 20.9375 136.428 20.2188C134.975 19.5 133.209 19.1406 131.131 19.1406C129.491 19.1406 128.014 19.4609 126.702 20.1016C125.389 20.7266 124.264 21.6328 123.327 22.8203C122.389 23.9922 121.662 25.3984 121.147 27.0391C120.647 28.6641 120.397 30.4844 120.397 32.5V37.3281C120.397 39.3125 120.647 41.1328 121.147 42.7891C121.647 44.4297 122.358 45.8438 123.28 47.0312C124.202 48.2031 125.319 49.1172 126.631 49.7734C127.944 50.4141 129.412 50.7344 131.037 50.7344C133.116 50.7344 134.889 50.4062 136.358 49.75C137.827 49.0781 138.983 48.0547 139.827 46.6797C140.686 45.3047 141.233 43.5703 141.467 41.4766ZM153.111 17.875V52H151.213V17.875H153.111ZM174.533 17.875L159.486 33.3438L152.384 40.0469L152.408 37.7734L158.314 31.8438L172.002 17.875H174.533ZM173.291 52L157.892 33.9531L159.041 32.3594L175.658 52H173.291ZM203.192 31.7734V37.2578H185.38V31.7734H203.192ZM187.466 17.875V52H180.434V17.875H187.466ZM208.208 17.875V52H201.2V17.875H208.208ZM242.656 34.1406V35.7578C242.656 38.3516 242.305 40.6797 241.602 42.7422C240.898 44.8047 239.906 46.5625 238.625 48.0156C237.344 49.4531 235.812 50.5547 234.031 51.3203C232.266 52.0859 230.305 52.4688 228.148 52.4688C226.008 52.4688 224.047 52.0859 222.266 51.3203C220.5 50.5547 218.969 49.4531 217.672 48.0156C216.375 46.5625 215.367 44.8047 214.648 42.7422C213.945 40.6797 213.594 38.3516 213.594 35.7578V34.1406C213.594 31.5312 213.945 29.2031 214.648 27.1562C215.352 25.0938 216.344 23.3359 217.625 21.8828C218.922 20.4297 220.453 19.3203 222.219 18.5547C224 17.7891 225.961 17.4062 228.102 17.4062C230.258 17.4062 232.219 17.7891 233.984 18.5547C235.766 19.3203 237.297 20.4297 238.578 21.8828C239.875 23.3359 240.875 25.0938 241.578 27.1562C242.297 29.2031 242.656 31.5312 242.656 34.1406ZM235.555 35.7578V34.0938C235.555 32.2812 235.391 30.6875 235.062 29.3125C234.734 27.9375 234.25 26.7812 233.609 25.8438C232.969 24.9062 232.188 24.2031 231.266 23.7344C230.344 23.25 229.289 23.0078 228.102 23.0078C226.914 23.0078 225.859 23.25 224.938 23.7344C224.031 24.2031 223.258 24.9062 222.617 25.8438C221.992 26.7812 221.516 27.9375 221.188 29.3125C220.859 30.6875 220.695 32.2812 220.695 34.0938V35.7578C220.695 37.5547 220.859 39.1484 221.188 40.5391C221.516 41.9141 222 43.0781 222.641 44.0312C223.281 44.9688 224.062 45.6797 224.984 46.1641C225.906 46.6484 226.961 46.8906 228.148 46.8906C229.336 46.8906 230.391 46.6484 231.312 46.1641C232.234 45.6797 233.008 44.9688 233.633 44.0312C234.258 43.0781 234.734 41.9141 235.062 40.5391C235.391 39.1484 235.555 37.5547 235.555 35.7578ZM276.05 34.1406V35.7578C276.05 38.3516 275.698 40.6797 274.995 42.7422C274.292 44.8047 273.3 46.5625 272.019 48.0156C270.738 49.4531 269.206 50.5547 267.425 51.3203C265.659 52.0859 263.698 52.4688 261.542 52.4688C259.402 52.4688 257.441 52.0859 255.659 51.3203C253.894 50.5547 252.363 49.4531 251.066 48.0156C249.769 46.5625 248.761 44.8047 248.042 42.7422C247.339 40.6797 246.988 38.3516 246.988 35.7578V34.1406C246.988 31.5312 247.339 29.2031 248.042 27.1562C248.745 25.0938 249.738 23.3359 251.019 21.8828C252.316 20.4297 253.847 19.3203 255.613 18.5547C257.394 17.7891 259.355 17.4062 261.495 17.4062C263.652 17.4062 265.613 17.7891 267.378 18.5547C269.159 19.3203 270.691 20.4297 271.972 21.8828C273.269 23.3359 274.269 25.0938 274.972 27.1562C275.691 29.2031 276.05 31.5312 276.05 34.1406ZM268.948 35.7578V34.0938C268.948 32.2812 268.784 30.6875 268.456 29.3125C268.128 27.9375 267.644 26.7812 267.003 25.8438C266.363 24.9062 265.581 24.2031 264.659 23.7344C263.738 23.25 262.683 23.0078 261.495 23.0078C260.308 23.0078 259.253 23.25 258.331 23.7344C257.425 24.2031 256.652 24.9062 256.011 25.8438C255.386 26.7812 254.909 27.9375 254.581 29.3125C254.253 30.6875 254.089 32.2812 254.089 34.0938V35.7578C254.089 37.5547 254.253 39.1484 254.581 40.5391C254.909 41.9141 255.394 43.0781 256.034 44.0312C256.675 44.9688 257.456 45.6797 258.378 46.1641C259.3 46.6484 260.355 46.8906 261.542 46.8906C262.73 46.8906 263.784 46.6484 264.706 46.1641C265.628 45.6797 266.402 44.9688 267.027 44.0312C267.652 43.0781 268.128 41.9141 268.456 40.5391C268.784 39.1484 268.948 37.5547 268.948 35.7578ZM291.889 52H284.459L284.506 46.5156H291.889C293.733 46.5156 295.288 46.1016 296.553 45.2734C297.819 44.4297 298.772 43.2031 299.413 41.5938C300.069 39.9844 300.397 38.0391 300.397 35.7578V34.0938C300.397 32.3438 300.209 30.8047 299.834 29.4766C299.475 28.1484 298.936 27.0312 298.217 26.125C297.498 25.2188 296.616 24.5391 295.569 24.0859C294.522 23.6172 293.319 23.3828 291.959 23.3828H284.319V17.875H291.959C294.241 17.875 296.327 18.2656 298.217 19.0469C300.123 19.8125 301.772 20.9141 303.163 22.3516C304.553 23.7891 305.623 25.5078 306.373 27.5078C307.139 29.4922 307.522 31.7031 307.522 34.1406V35.7578C307.522 38.1797 307.139 40.3906 306.373 42.3906C305.623 44.3906 304.553 46.1094 303.163 47.5469C301.788 48.9688 300.139 50.0703 298.217 50.8516C296.311 51.6172 294.202 52 291.889 52ZM288.444 17.875V52H281.413V17.875H288.444Z" fill="white"/>
</svg>
