<svg width="221" height="56" viewBox="0 0 221 56" fill="none" xmlns="http://www.w3.org/2000/svg">
<path d="M71.0781 9.875V44H64.0469V9.875H71.0781ZM84.6719 24.4531V29.9375H69.1562V24.4531H84.6719ZM86.3125 9.875V15.3828H69.1562V9.875H86.3125ZM109.534 9.875H116.542V32.4219C116.542 35.0469 115.98 37.2578 114.855 39.0547C113.745 40.8516 112.206 42.2031 110.237 43.1094C108.284 44.0156 106.034 44.4688 103.487 44.4688C100.941 44.4688 98.675 44.0156 96.6906 43.1094C94.7219 42.2031 93.175 40.8516 92.05 39.0547C90.9406 37.2578 90.3859 35.0469 90.3859 32.4219V9.875H97.4172V32.4219C97.4172 33.9531 97.6594 35.2031 98.1437 36.1719C98.6281 37.1406 99.3234 37.8516 100.23 38.3047C101.152 38.7578 102.237 38.9844 103.487 38.9844C104.769 38.9844 105.855 38.7578 106.745 38.3047C107.652 37.8516 108.339 37.1406 108.808 36.1719C109.292 35.2031 109.534 33.9531 109.534 32.4219V9.875ZM145.53 38.5156V44H127.366V38.5156H145.53ZM129.662 9.875V44H122.631V9.875H129.662ZM143.162 23.7734V29.1172H127.366V23.7734H143.162ZM145.506 9.875V15.3828H127.366V9.875H145.506ZM171.869 38.5156V44H154.689V38.5156H171.869ZM156.963 9.875V44H149.931V9.875H156.963ZM181.005 9.875V44H178.122V9.875H181.005ZM215.992 9.875V44H213.086L193.469 14.8438V44H190.586V9.875H193.469L213.133 39.0312V9.875H215.992Z" fill="white"/>
<g clip-path="url(#clip0_808_502)">
<path d="M30.3978 44.6218H28.804V46.2188H30.3978V44.6218Z" fill="#EBEBEB" stroke="#EBEBEB" stroke-width="1.5625"/>
<path d="M27.2103 44.6218H25.6165V46.2188H27.2103V44.6218Z" fill="#EBEBEB" stroke="#EBEBEB" stroke-width="1.5625"/>
<path d="M24.0239 44.6218H22.4302V46.2188H24.0239V44.6218Z" fill="#EBEBEB" stroke="#EBEBEB" stroke-width="1.5625"/>
<path d="M20.8364 44.6218H19.2427V46.2188H20.8364V44.6218Z" fill="#EBEBEB" stroke="#EBEBEB" stroke-width="1.5625"/>
<path d="M47.3636 13.3154L48.4925 12.1862L36.5402 0.233883L35.4109 1.36296L36.44 2.39202L34.3819 4.45015L29.9317 0H5.69627C3.93787 0 2.50748 1.43059 2.50748 3.18889V47.811C2.50748 49.5694 3.93797 50.9999 5.69627 50.9999H43.9439C45.7023 50.9999 47.1328 49.5693 47.1328 47.811V17.201L44.2762 14.3444L46.3344 12.2862L47.3636 13.3154ZM44.4067 16.7333H34.3819V18.3302H45.5358V44.6221H34.3819V46.219H45.5358V47.8111C45.5358 48.689 44.8217 49.4033 43.9438 49.4033H5.69627C4.81851 49.4033 4.10441 48.6892 4.10441 47.8112V46.2191H15.2583V44.6222H4.10441V18.3302H15.2583V16.7333H4.10441V3.18889C4.10441 2.31104 4.81851 1.59684 5.69627 1.59684H29.2703L44.4067 16.7333ZM43.147 13.2153L35.5112 5.57942L37.5694 3.52129L45.2052 11.157L43.147 13.2153Z" fill="#EBEBEB" stroke="#EBEBEB" stroke-width="1.5625"/>
<path d="M31.5254 11.1555L25.1509 4.78101H8.08519V11.1555H5.69626V12.7524H34.3819V11.1555H31.5254ZM9.68203 11.1554V6.37784H24.4894L29.267 11.1555L9.68203 11.1554Z" fill="#EBEBEB" stroke="#EBEBEB" stroke-width="1.5625"/>
<path d="M30.8371 24.8217C28.3633 20.5512 25.5518 17.1627 25.4335 17.0205L24.8201 16.2844L24.2067 17.0205C24.0884 17.1627 21.2769 20.5512 18.803 24.8217C15.3886 30.7159 14.372 35.2305 15.7815 38.2401C17.0231 40.8908 20.0641 42.2348 24.8201 42.2348C29.576 42.2348 32.617 40.8908 33.8584 38.2401C35.2682 35.2306 34.2516 30.7159 30.8371 24.8217ZM32.4122 37.5633C31.4563 39.6034 28.902 40.6378 24.8202 40.6378C20.7384 40.6378 18.1838 39.6034 17.2281 37.5633C16.0709 35.0935 17.0898 30.9705 20.1747 25.64C21.9052 22.6498 23.8529 20.0477 24.8203 18.81C25.7877 20.0478 27.7354 22.65 29.4659 25.64C32.5505 30.9706 33.5694 35.0936 32.4122 37.5633Z" fill="#EBEBEB" stroke="#EBEBEB" stroke-width="1.5625"/>
<path d="M28.4084 29.2006C27.0726 26.8962 25.5531 25.0654 25.4892 24.9887L24.8757 24.2529L24.2624 24.989C24.1984 25.0659 22.6798 26.8969 21.3449 29.2017C19.4595 32.4573 18.9124 34.9812 19.7192 36.7032C20.448 38.259 22.183 39.0478 24.876 39.0478C27.5714 39.0478 29.3077 38.2585 30.0366 36.7019C30.8429 34.9794 30.2952 32.4557 28.4084 29.2006ZM28.59 36.0251C28.1468 36.9711 26.8971 37.4508 24.8758 37.4508C22.8569 37.4508 21.6086 36.9715 21.1654 36.0262C20.6107 34.8427 21.1615 32.7097 22.7163 30.0197C23.4782 28.7016 24.3216 27.5251 24.8759 26.793C25.4305 27.525 26.2745 28.7014 27.0369 30.0192C28.5929 32.7086 29.1445 34.8415 28.59 36.0251Z" fill="#EBEBEB" stroke="#EBEBEB" stroke-width="1.5625"/>
<path d="M24.8202 32.6697V34.2633H23.2264V35.8603H24.8202V34.2666H26.4136V32.6697H24.8202Z" fill="#EBEBEB" stroke="#EBEBEB" stroke-width="1.5625"/>
</g>
<defs>
<clipPath id="clip0_808_502">
<rect width="51" height="51" fill="white"/>
</clipPath>
</defs>
</svg>
