<svg width="25" height="24" viewBox="0 0 25 24" fill="none" xmlns="http://www.w3.org/2000/svg">
<path d="M19.6429 7.5V6C19.6429 2.69156 16.4386 0 12.5 0C8.56138 0 5.35714 2.69156 5.35714 6V7.5H0V20.25C0 22.3211 1.99872 24 4.46429 24H20.5357C23.0013 24 25 22.3211 25 20.25V7.5H19.6429ZM8.92857 6C8.92857 4.34578 10.5307 3 12.5 3C14.4693 3 16.0714 4.34578 16.0714 6V7.5H8.92857V6ZM17.8571 11.625C17.1175 11.625 16.5179 11.1213 16.5179 10.5C16.5179 9.87867 17.1175 9.375 17.8571 9.375C18.5968 9.375 19.1964 9.87867 19.1964 10.5C19.1964 11.1213 18.5968 11.625 17.8571 11.625ZM7.14286 11.625C6.40318 11.625 5.80357 11.1213 5.80357 10.5C5.80357 9.87867 6.40318 9.375 7.14286 9.375C7.88253 9.375 8.48214 9.87867 8.48214 10.5C8.48214 11.1213 7.88253 11.625 7.14286 11.625Z" fill="#552494"/>
</svg>
