<svg width="397" height="397" viewBox="0 0 397 397" fill="none" xmlns="http://www.w3.org/2000/svg">
<path d="M66.1667 152.875C66.1667 150.989 66.1667 150.047 66.7525 149.461C67.3383 148.875 68.2811 148.875 70.1667 148.875H326.833C328.719 148.875 329.662 148.875 330.248 149.461C330.833 150.047 330.833 150.989 330.833 152.875V341.375C330.833 344.203 330.833 345.618 329.955 346.496C329.076 347.375 327.662 347.375 324.833 347.375H72.1667C69.3383 347.375 67.924 347.375 67.0454 346.496C66.1667 345.618 66.1667 344.203 66.1667 341.375V152.875Z" stroke="white" stroke-width="2"/>
<path d="M264.667 132.333V59.625C264.667 54.911 264.667 52.5539 263.202 51.0895C261.738 49.625 259.381 49.625 254.667 49.625H142.333C137.619 49.625 135.262 49.625 133.798 51.0895C132.333 52.5539 132.333 54.911 132.333 59.625V132.333" stroke="white" stroke-width="2" stroke-linecap="round"/>
<circle cx="198.5" cy="248.125" r="33.0833" fill="white"/>
</svg>
