<svg width="25" height="24" viewBox="0 0 25 24" fill="none" xmlns="http://www.w3.org/2000/svg">
<path d="M23.9583 0H3.81944C3.24414 0 2.77778 0.671562 2.77778 1.5V2H1.04167C0.466363 2 0 2.67156 0 3.5V20.5C0 22.433 1.08819 24 2.43056 24H22.9167C24.0673 24 25 22.6569 25 21V1.5C25 0.671562 24.5336 0 23.9583 0ZM2.43056 21C2.33847 21 2.25015 20.9473 2.18503 20.8536C2.11992 20.7598 2.08333 20.6326 2.08333 20.5V5H2.77778V20.5C2.77778 20.6326 2.7412 20.7598 2.67608 20.8536C2.61096 20.9473 2.52264 21 2.43056 21ZM12.6736 20H6.07639C5.78876 20 5.55556 19.6642 5.55556 19.25V18.75C5.55556 18.3358 5.78876 18 6.07639 18H12.6736C12.9612 18 13.1944 18.3358 13.1944 18.75V19.25C13.1944 19.6642 12.9612 20 12.6736 20ZM21.7014 20H15.1042C14.8165 20 14.5833 19.6642 14.5833 19.25V18.75C14.5833 18.3358 14.8165 18 15.1042 18H21.7014C21.989 18 22.2222 18.3358 22.2222 18.75V19.25C22.2222 19.6642 21.989 20 21.7014 20ZM12.6736 14H6.07639C5.78876 14 5.55556 13.6642 5.55556 13.25V12.75C5.55556 12.3358 5.78876 12 6.07639 12H12.6736C12.9612 12 13.1944 12.3358 13.1944 12.75V13.25C13.1944 13.6642 12.9612 14 12.6736 14ZM21.7014 14H15.1042C14.8165 14 14.5833 13.6642 14.5833 13.25V12.75C14.5833 12.3358 14.8165 12 15.1042 12H21.7014C21.989 12 22.2222 12.3358 22.2222 12.75V13.25C22.2222 13.6642 21.989 14 21.7014 14ZM21.7014 8H6.07639C5.78876 8 5.55556 7.66419 5.55556 7.25V4.75C5.55556 4.33581 5.78876 4 6.07639 4H21.7014C21.989 4 22.2222 4.33581 22.2222 4.75V7.25C22.2222 7.66419 21.989 8 21.7014 8Z" fill="white"/>
</svg>
