<svg width="25" height="24" viewBox="0 0 25 24" fill="none" xmlns="http://www.w3.org/2000/svg">
<path d="M16.25 16H18.125C18.4375 16 18.75 15.6 18.75 15.2V6.8C18.75 6.4 18.4375 6 18.125 6H16.25C15.9375 6 15.625 6.4 15.625 6.8V15.2C15.625 15.6 15.9375 16 16.25 16ZM20.9375 16H22.8125C23.125 16 23.4375 15.6 23.4375 15.2V0.8C23.4375 0.4 23.125 0 22.8125 0H20.9375C20.625 0 20.3125 0.4 20.3125 0.8V15.2C20.3125 15.6 20.625 16 20.9375 16ZM6.875 16H8.75C9.0625 16 9.375 15.6 9.375 15.2V10.8C9.375 10.4 9.0625 10 8.75 10H6.875C6.5625 10 6.25 10.4 6.25 10.8V15.2C6.25 15.6 6.5625 16 6.875 16ZM11.5625 16H13.4375C13.75 16 14.0625 15.6 14.0625 15.2V2.8C14.0625 2.4 13.75 2 13.4375 2H11.5625C11.25 2 10.9375 2.4 10.9375 2.8V15.2C10.9375 15.6 11.25 16 11.5625 16ZM24.2188 20H3.125V1C3.125 0.4475 2.77539 0 2.34375 0H0.78125C0.349609 0 0 0.4475 0 1V22C0 23.1044 0.699707 24 1.5625 24H24.2188C24.6504 24 25 23.5525 25 23V21C25 20.4475 24.6504 20 24.2188 20Z" fill="white"/>
</svg>
