<svg width="152" height="36" viewBox="0 0 152 36" fill="none" xmlns="http://www.w3.org/2000/svg">
<path d="M7.07812 0.875V35H0.046875V0.875H7.07812ZM20.6719 15.4531V20.9375H5.15625V15.4531H20.6719ZM22.3125 0.875V6.38281H5.15625V0.875H22.3125ZM45.5344 0.875H52.5422V23.4219C52.5422 26.0469 51.9797 28.2578 50.8547 30.0547C49.7453 31.8516 48.2062 33.2031 46.2375 34.1094C44.2844 35.0156 42.0344 35.4688 39.4875 35.4688C36.9406 35.4688 34.675 35.0156 32.6906 34.1094C30.7219 33.2031 29.175 31.8516 28.05 30.0547C26.9406 28.2578 26.3859 26.0469 26.3859 23.4219V0.875H33.4172V23.4219C33.4172 24.9531 33.6594 26.2031 34.1437 27.1719C34.6281 28.1406 35.3234 28.8516 36.2297 29.3047C37.1516 29.7578 38.2375 29.9844 39.4875 29.9844C40.7687 29.9844 41.8547 29.7578 42.7453 29.3047C43.6516 28.8516 44.3391 28.1406 44.8078 27.1719C45.2922 26.2031 45.5344 24.9531 45.5344 23.4219V0.875ZM81.5297 29.5156V35H63.3656V29.5156H81.5297ZM65.6625 0.875V35H58.6312V0.875H65.6625ZM79.1625 14.7734V20.1172H63.3656V14.7734H79.1625ZM81.5062 0.875V6.38281H63.3656V0.875H81.5062ZM107.869 29.5156V35H90.6891V29.5156H107.869ZM92.9625 0.875V35H85.9313V0.875H92.9625ZM117.005 0.875V35H114.122V0.875H117.005ZM151.992 0.875V35H149.086L129.469 5.84375V35H126.586V0.875H129.469L149.133 30.0312V0.875H151.992Z" fill="white"/>
</svg>
