<svg width="245" height="36" viewBox="0 0 245 36" fill="none" xmlns="http://www.w3.org/2000/svg">
<path d="M19.7188 33.2656V35H1.625V33.2656H19.7188ZM2.46875 0.875V35H0.546875V0.875H2.46875ZM48.8469 15.6641V20.2109C48.8469 22.4922 48.5422 24.5703 47.9328 26.4453C47.3391 28.3203 46.4719 29.9297 45.3312 31.2734C44.1906 32.6172 42.8234 33.6562 41.2297 34.3906C39.6359 35.1094 37.8391 35.4688 35.8391 35.4688C33.8859 35.4688 32.1047 35.1094 30.4953 34.3906C28.8859 33.6562 27.5031 32.6172 26.3469 31.2734C25.2062 29.9297 24.3234 28.3203 23.6984 26.4453C23.0891 24.5703 22.7844 22.4922 22.7844 20.2109V15.6641C22.7844 13.3672 23.0891 11.2891 23.6984 9.42969C24.3234 7.55469 25.2062 5.94531 26.3469 4.60156C27.4875 3.25781 28.8547 2.22656 30.4484 1.50781C32.0578 0.773438 33.8391 0.40625 35.7922 0.40625C37.7922 0.40625 39.5891 0.773438 41.1828 1.50781C42.7766 2.22656 44.1437 3.25781 45.2844 4.60156C46.4406 5.94531 47.3234 7.55469 47.9328 9.42969C48.5422 11.2891 48.8469 13.3672 48.8469 15.6641ZM46.9719 20.2109V15.6172C46.9719 13.6172 46.7219 11.7969 46.2219 10.1562C45.7219 8.5 44.9875 7.07812 44.0187 5.89062C43.0656 4.70312 41.9016 3.78906 40.5266 3.14844C39.1516 2.49219 37.5734 2.16406 35.7922 2.16406C34.0578 2.16406 32.5031 2.49219 31.1281 3.14844C29.7531 3.78906 28.5891 4.70312 27.6359 5.89062C26.6828 7.07812 25.9562 8.5 25.4562 10.1562C24.9562 11.7969 24.7062 13.6172 24.7062 15.6172V20.2109C24.7062 22.2266 24.9562 24.0625 25.4562 25.7188C25.9719 27.375 26.7062 28.7969 27.6594 29.9844C28.6125 31.1719 29.7766 32.0938 31.1516 32.75C32.5422 33.3906 34.1047 33.7109 35.8391 33.7109C37.6203 33.7109 39.1984 33.3906 40.5734 32.75C41.9484 32.0938 43.1125 31.1719 44.0656 29.9844C45.0187 28.7969 45.7375 27.375 46.2219 25.7188C46.7219 24.0625 46.9719 22.2266 46.9719 20.2109ZM78.4672 24.4766H80.3656C80.1312 26.8672 79.4906 28.8828 78.4437 30.5234C77.3969 32.1484 75.9906 33.3828 74.225 34.2266C72.475 35.0547 70.4125 35.4688 68.0375 35.4688C66.1469 35.4688 64.4281 35.1094 62.8812 34.3906C61.35 33.6562 60.0297 32.625 58.9203 31.2969C57.8266 29.9531 56.9828 28.3516 56.3891 26.4922C55.7953 24.6328 55.4984 22.5781 55.4984 20.3281V15.5469C55.4984 13.2812 55.7953 11.2266 56.3891 9.38281C56.9828 7.52344 57.8266 5.92969 58.9203 4.60156C60.0297 3.25781 61.3578 2.22656 62.9047 1.50781C64.4672 0.773438 66.2094 0.40625 68.1312 0.40625C70.4594 0.40625 72.4984 0.820313 74.2484 1.64844C75.9984 2.47656 77.3969 3.71094 78.4437 5.35156C79.4906 6.97656 80.1312 8.98438 80.3656 11.375H78.4672C78.2328 9.39062 77.6937 7.71875 76.85 6.35938C76.0219 4.98437 74.8812 3.9375 73.4281 3.21875C71.975 2.5 70.2094 2.14062 68.1312 2.14062C66.4906 2.14062 65.0141 2.46094 63.7016 3.10156C62.3891 3.72656 61.2641 4.63281 60.3266 5.82031C59.3891 6.99219 58.6625 8.39844 58.1469 10.0391C57.6469 11.6641 57.3969 13.4844 57.3969 15.5V20.3281C57.3969 22.3125 57.6469 24.1328 58.1469 25.7891C58.6469 27.4297 59.3578 28.8438 60.2797 30.0312C61.2016 31.2031 62.3187 32.1172 63.6312 32.7734C64.9437 33.4141 66.4125 33.7344 68.0375 33.7344C70.1156 33.7344 71.8891 33.4062 73.3578 32.75C74.8266 32.0781 75.9828 31.0547 76.8266 29.6797C77.6859 28.3047 78.2328 26.5703 78.4672 24.4766ZM90.1109 0.875V35H88.2125V0.875H90.1109ZM111.533 0.875L96.4859 16.3438L89.3844 23.0469L89.4078 20.7734L95.3141 14.8438L109.002 0.875H111.533ZM110.291 35L94.8922 16.9531L96.0406 15.3594L112.658 35H110.291ZM140.192 14.7734V20.2578H122.38V14.7734H140.192ZM124.466 0.875V35H117.434V0.875H124.466ZM145.208 0.875V35H138.2V0.875H145.208ZM179.656 17.1406V18.7578C179.656 21.3516 179.305 23.6797 178.602 25.7422C177.898 27.8047 176.906 29.5625 175.625 31.0156C174.344 32.4531 172.812 33.5547 171.031 34.3203C169.266 35.0859 167.305 35.4688 165.148 35.4688C163.008 35.4688 161.047 35.0859 159.266 34.3203C157.5 33.5547 155.969 32.4531 154.672 31.0156C153.375 29.5625 152.367 27.8047 151.648 25.7422C150.945 23.6797 150.594 21.3516 150.594 18.7578V17.1406C150.594 14.5312 150.945 12.2031 151.648 10.1562C152.352 8.09375 153.344 6.33594 154.625 4.88281C155.922 3.42969 157.453 2.32031 159.219 1.55469C161 0.789062 162.961 0.40625 165.102 0.40625C167.258 0.40625 169.219 0.789062 170.984 1.55469C172.766 2.32031 174.297 3.42969 175.578 4.88281C176.875 6.33594 177.875 8.09375 178.578 10.1562C179.297 12.2031 179.656 14.5312 179.656 17.1406ZM172.555 18.7578V17.0938C172.555 15.2812 172.391 13.6875 172.062 12.3125C171.734 10.9375 171.25 9.78125 170.609 8.84375C169.969 7.90625 169.188 7.20312 168.266 6.73438C167.344 6.25 166.289 6.00781 165.102 6.00781C163.914 6.00781 162.859 6.25 161.938 6.73438C161.031 7.20312 160.258 7.90625 159.617 8.84375C158.992 9.78125 158.516 10.9375 158.188 12.3125C157.859 13.6875 157.695 15.2812 157.695 17.0938V18.7578C157.695 20.5547 157.859 22.1484 158.188 23.5391C158.516 24.9141 159 26.0781 159.641 27.0312C160.281 27.9688 161.062 28.6797 161.984 29.1641C162.906 29.6484 163.961 29.8906 165.148 29.8906C166.336 29.8906 167.391 29.6484 168.312 29.1641C169.234 28.6797 170.008 27.9688 170.633 27.0312C171.258 26.0781 171.734 24.9141 172.062 23.5391C172.391 22.1484 172.555 20.5547 172.555 18.7578ZM213.05 17.1406V18.7578C213.05 21.3516 212.698 23.6797 211.995 25.7422C211.292 27.8047 210.3 29.5625 209.019 31.0156C207.738 32.4531 206.206 33.5547 204.425 34.3203C202.659 35.0859 200.698 35.4688 198.542 35.4688C196.402 35.4688 194.441 35.0859 192.659 34.3203C190.894 33.5547 189.363 32.4531 188.066 31.0156C186.769 29.5625 185.761 27.8047 185.042 25.7422C184.339 23.6797 183.988 21.3516 183.988 18.7578V17.1406C183.988 14.5312 184.339 12.2031 185.042 10.1562C185.745 8.09375 186.738 6.33594 188.019 4.88281C189.316 3.42969 190.847 2.32031 192.613 1.55469C194.394 0.789062 196.355 0.40625 198.495 0.40625C200.652 0.40625 202.613 0.789062 204.378 1.55469C206.159 2.32031 207.691 3.42969 208.972 4.88281C210.269 6.33594 211.269 8.09375 211.972 10.1562C212.691 12.2031 213.05 14.5312 213.05 17.1406ZM205.948 18.7578V17.0938C205.948 15.2812 205.784 13.6875 205.456 12.3125C205.128 10.9375 204.644 9.78125 204.003 8.84375C203.363 7.90625 202.581 7.20312 201.659 6.73438C200.738 6.25 199.683 6.00781 198.495 6.00781C197.308 6.00781 196.253 6.25 195.331 6.73438C194.425 7.20312 193.652 7.90625 193.011 8.84375C192.386 9.78125 191.909 10.9375 191.581 12.3125C191.253 13.6875 191.089 15.2812 191.089 17.0938V18.7578C191.089 20.5547 191.253 22.1484 191.581 23.5391C191.909 24.9141 192.394 26.0781 193.034 27.0312C193.675 27.9688 194.456 28.6797 195.378 29.1641C196.3 29.6484 197.355 29.8906 198.542 29.8906C199.73 29.8906 200.784 29.6484 201.706 29.1641C202.628 28.6797 203.402 27.9688 204.027 27.0312C204.652 26.0781 205.128 24.9141 205.456 23.5391C205.784 22.1484 205.948 20.5547 205.948 18.7578ZM228.889 35H221.459L221.506 29.5156H228.889C230.733 29.5156 232.288 29.1016 233.553 28.2734C234.819 27.4297 235.772 26.2031 236.413 24.5938C237.069 22.9844 237.397 21.0391 237.397 18.7578V17.0938C237.397 15.3438 237.209 13.8047 236.834 12.4766C236.475 11.1484 235.936 10.0312 235.217 9.125C234.498 8.21875 233.616 7.53906 232.569 7.08594C231.522 6.61719 230.319 6.38281 228.959 6.38281H221.319V0.875H228.959C231.241 0.875 233.327 1.26563 235.217 2.04688C237.123 2.8125 238.772 3.91406 240.163 5.35156C241.553 6.78906 242.623 8.50781 243.373 10.5078C244.139 12.4922 244.522 14.7031 244.522 17.1406V18.7578C244.522 21.1797 244.139 23.3906 243.373 25.3906C242.623 27.3906 241.553 29.1094 240.163 30.5469C238.788 31.9688 237.139 33.0703 235.217 33.8516C233.311 34.6172 231.202 35 228.889 35ZM225.444 0.875V35H218.413V0.875H225.444Z" fill="white"/>
</svg>
